<svg xmlns="http://www.w3.org/2000/svg" width="32" height="32"><path style="text-indent:0;text-align:start;line-height:normal;text-transform:none;block-progression:tb;marker:none;-inkscape-font-specification:Sans" d="M16 0C7.17 0 0 7.17 0 16s7.17 16 16 16 16-7.17 16-16S24.83 0 16 0zm0 .969C24.307.969 31.031 7.693 31.031 16S24.307 31.031 16 31.031.969 24.307.969 16 7.693.969 16 .969zM9.406 11a.5.5 0 0 0-.406.5v1.938a.5.5 0 0 0 0 .156V20.5a.5.5 0 0 0 .5.5h14a.5.5 0 0 0 .5-.5v-6.969a.5.5 0 0 0 0-.062V11.5a.5.5 0 0 0-.5-.5h-14a.5.5 0 0 0-.094 0zM10 12h13v1.188l-6.5 3.218-6.5-3.218V12zm0 2.313 6.281 3.093a.5.5 0 0 0 .438 0L23 14.313V20H10v-5.688z" color="#000" font-family="Sans" font-weight="400" overflow="visible"/></svg>