<svg xmlns="http://www.w3.org/2000/svg" enable-background="new 0 0 96 96" viewBox="0 0 96 96"><path d="M54.8145 87.8625l2.8674-2.8647-1.3931-1.3941-5.633 5.6282 5.633 5.633 1.3931-1.3931-3.5077-3.5077c18.9514-2.7756 33.9173-18.201 35.9447-37.4066l-1.9598-.2068C86.2597 70.347 72.4419 84.8565 54.8145 87.8625zM88.3046 45.6403l-3.1726-3.1727-1.3931 1.3931 5.633 5.633L95 43.8607l-1.3941-1.3931-3.3164 3.3194C89.2003 25.1381 73.3754 8.2089 52.6218 5.9562L52.4092 7.915C72.1111 10.0537 87.1506 26.0668 88.3046 45.6403zM45.6184 7.7524l-3.2509 3.2509 1.3931 1.3931 5.633-5.633-5.633-5.6282-1.3931 1.3941 3.2511 3.2482C24.6244 6.9197 7.7086 23.0686 5.8157 44.2421l1.9626.1751C9.5794 24.2677 25.6526 8.8924 45.6184 7.7524zM7.8854 52.6589l2.9832 2.9829 1.3931-1.3931-5.633-5.6325L1 54.2487l1.3941 1.3931 3.4506-3.4529C7.9227 73.7912 26.0428 90.4152 48 90.4152v-1.9703C27.2899 88.4449 10.1699 72.9314 7.8854 52.6589z"/><path d="M75.172 54.4243c0 0 4.3544 5.4676-1.9802 7.4873 0 0 2.522 10.1965-6.0883 10.1965-8.0587 0-21.9397-3.0441-27.0528-4.2263V40.297c3.586-2.66 11.093-9.1917 13.9796-19.0434.9063-3.0836 4.2461-4.9061 7.2804-3.8421 3.7634 1.3298 6.7878 5.2902 1.0935 16.4424 0 0 22.4914-1.6747 13.4279 12.5412C75.832 46.3952 81.1323 52.1289 75.172 54.4243zM21.9991 68.8663h16.078V39.7052h-16.078V68.8663zM27.1318 52.6995c1.1822 0 2.1477.9557 2.1477 2.1379 0 1.1921-.9654 2.1477-2.1477 2.1477-1.1822 0-2.1477-.9556-2.1477-2.1477C24.9842 53.6552 25.9496 52.6995 27.1318 52.6995zM27.1318 61.0833c1.1822 0 2.1477.9654 2.1477 2.1477s-.9654 2.1477-2.1477 2.1477c-1.1822 0-2.1477-.9654-2.1477-2.1477S25.9496 61.0833 27.1318 61.0833zM65.6378 76.3453l-.1674-1.9636c-6.2752.5354-12.5816-.7028-16.7657-1.8347L48.19 74.449c3.6155.978 8.766 2.031 14.182 2.031C63.4534 76.48 64.5458 76.4381 65.6378 76.3453zM45.7194 73.7275l.5898-1.8799c-2.1118-.6629-3.4077-1.1978-3.4207-1.2031l-.7557 1.8193C42.1881 72.4869 43.5153 73.0357 45.7194 73.7275z"/><rect width="6.647" height="1.97" x="28.889" y="34.636"/><rect width="2.536" height="1.97" x="24.596" y="34.636"/><rect width="6.925" height="1.97" x="26.604" y="30.689"/><rect width="1.97" height="11.628" x="17.017" y="49.457"/><rect width="1.97" height="3.402" x="17.017" y="42.748"/></svg>